<?xml version="1.0" standalone="no"?><!DOCTYPE svg PUBLIC "-//W3C//DTD SVG 1.1//EN" "http://www.w3.org/Graphics/SVG/1.1/DTD/svg11.dtd"><svg t="1767375916209" class="icon" viewBox="0 0 1024 1024" version="1.1" xmlns="http://www.w3.org/2000/svg" p-id="7681" xmlns:xlink="http://www.w3.org/1999/xlink" width="200" height="200"><path d="M21.333333 0v1024" opacity=".3" p-id="7682"></path><path d="M42.666667 0v1024" p-id="7683"></path><path d="M64 0v1024" opacity=".3" p-id="7684"></path><path d="M85.333333 0v1024" p-id="7685"></path><path d="M106.666667 0v1024" opacity=".3" p-id="7686"></path><path d="M128 0v1024" p-id="7687"></path><path d="M149.333333 0v1024" opacity=".3" p-id="7688"></path><path d="M170.666667 0v1024" p-id="7689"></path><path d="M192 0v1024" opacity=".3" p-id="7690"></path><path d="M213.333333 0v1024" p-id="7691"></path><path d="M234.666667 0v1024" opacity=".3" p-id="7692"></path><path d="M256 0v1024" p-id="7693"></path><path d="M277.333333 0v1024" opacity=".3" p-id="7694"></path><path d="M298.666667 0v1024" p-id="7695"></path><path d="M320 0v1024" opacity=".3" p-id="7696"></path><path d="M341.333333 0v1024" p-id="7697"></path><path d="M362.666667 0v1024" opacity=".3" p-id="7698"></path><path d="M384 0v1024" p-id="7699"></path><path d="M405.333333 0v1024" opacity=".3" p-id="7700"></path><path d="M426.666667 0v1024" p-id="7701"></path><path d="M448 0v1024" opacity=".3" p-id="7702"></path><path d="M469.333333 0v1024" p-id="7703"></path><path d="M490.666667 0v1024" opacity=".3" p-id="7704"></path><path d="M512 0v1024" p-id="7705"></path><path d="M533.333333 0v1024" opacity=".3" p-id="7706"></path><path d="M554.666667 0v1024" p-id="7707"></path><path d="M576 0v1024" opacity=".3" p-id="7708"></path><path d="M597.333333 0v1024" p-id="7709"></path><path d="M618.666667 0v1024" opacity=".3" p-id="7710"></path><path d="M640 0v1024" p-id="7711"></path><path d="M661.333333 0v1024" opacity=".3" p-id="7712"></path><path d="M682.666667 0v1024" p-id="7713"></path><path d="M704 0v1024" opacity=".3" p-id="7714"></path><path d="M725.333333 0v1024" p-id="7715"></path><path d="M746.666667 0v1024" opacity=".3" p-id="7716"></path><path d="M768 0v1024" p-id="7717"></path><path d="M789.333333 0v1024" opacity=".3" p-id="7718"></path><path d="M810.666667 0v1024" p-id="7719"></path><path d="M832 0v1024" opacity=".3" p-id="7720"></path><path d="M853.333333 0v1024" p-id="7721"></path><path d="M874.666667 0v1024" opacity=".3" p-id="7722"></path><path d="M896 0v1024" p-id="7723"></path><path d="M917.333333 0v1024" opacity=".3" p-id="7724"></path><path d="M938.666667 0v1024" p-id="7725"></path><path d="M960 0v1024" opacity=".3" p-id="7726"></path><path d="M981.333333 0v1024" p-id="7727"></path><path d="M1002.666667 0v1024M0 21.333333h1024" opacity=".3" p-id="7728"></path><path d="M0 42.666667h1024" p-id="7729"></path><path d="M0 64h1024" opacity=".3" p-id="7730"></path><path d="M0 85.333333h1024" p-id="7731"></path><path d="M0 106.666667h1024" opacity=".3" p-id="7732"></path><path d="M0 128h1024" p-id="7733"></path><path d="M0 149.333333h1024" opacity=".3" p-id="7734"></path><path d="M0 170.666667h1024" p-id="7735"></path><path d="M0 192h1024" opacity=".3" p-id="7736"></path><path d="M0 213.333333h1024" p-id="7737"></path><path d="M0 234.666667h1024" opacity=".3" p-id="7738"></path><path d="M0 256h1024" p-id="7739"></path><path d="M0 277.333333h1024" opacity=".3" p-id="7740"></path><path d="M0 298.666667h1024" p-id="7741"></path><path d="M0 320h1024" opacity=".3" p-id="7742"></path><path d="M0 341.333333h1024" p-id="7743"></path><path d="M0 362.666667h1024" opacity=".3" p-id="7744"></path><path d="M0 384h1024" p-id="7745"></path><path d="M0 405.333333h1024" opacity=".3" p-id="7746"></path><path d="M0 426.666667h1024" p-id="7747"></path><path d="M0 448h1024" opacity=".3" p-id="7748"></path><path d="M0 469.333333h1024" p-id="7749"></path><path d="M0 490.666667h1024" opacity=".3" p-id="7750"></path><path d="M0 512h1024" p-id="7751"></path><path d="M0 533.333333h1024" opacity=".3" p-id="7752"></path><path d="M0 554.666667h1024" p-id="7753"></path><path d="M0 576h1024" opacity=".3" p-id="7754"></path><path d="M0 597.333333h1024" p-id="7755"></path><path d="M0 618.666667h1024" opacity=".3" p-id="7756"></path><path d="M0 640h1024" p-id="7757"></path><path d="M0 661.333333h1024" opacity=".3" p-id="7758"></path><path d="M0 682.666667h1024" p-id="7759"></path><path d="M0 704h1024" opacity=".3" p-id="7760"></path><path d="M0 725.333333h1024" p-id="7761"></path><path d="M0 746.666667h1024" opacity=".3" p-id="7762"></path><path d="M0 768h1024" p-id="7763"></path><path d="M0 789.333333h1024" opacity=".3" p-id="7764"></path><path d="M0 810.666667h1024" p-id="7765"></path><path d="M0 832h1024" opacity=".3" p-id="7766"></path><path d="M0 853.333333h1024" p-id="7767"></path><path d="M0 874.666667h1024" opacity=".3" p-id="7768"></path><path d="M0 896h1024" p-id="7769"></path><path d="M0 917.333333h1024" opacity=".3" p-id="7770"></path><path d="M0 938.666667h1024" p-id="7771"></path><path d="M0 960h1024" opacity=".3" p-id="7772"></path><path d="M0 981.333333h1024" p-id="7773"></path><path d="M0 1002.666667h1024" opacity=".3" p-id="7774"></path><path d="M810 274L572 512l238 238-60 60L512 572 274 810l-60-60L452 512 214 274l60-60L512 452l238-238z" p-id="7775"></path></svg>