<?xml version="1.0" standalone="no"?><!DOCTYPE svg PUBLIC "-//W3C//DTD SVG 1.1//EN" "http://www.w3.org/Graphics/SVG/1.1/DTD/svg11.dtd"><svg t="1767173788026" class="icon" viewBox="0 0 1024 1024" version="1.1" xmlns="http://www.w3.org/2000/svg" p-id="18134" xmlns:xlink="http://www.w3.org/1999/xlink" width="200" height="200"><path d="M419.114667 163.114667A10.666667 10.666667 0 0 0 416 170.666667v96h192V170.666667a10.666667 10.666667 0 0 0-10.666667-10.666667h-170.666666a10.666667 10.666667 0 0 0-7.552 3.114667zM352 266.666667V170.666667A74.666667 74.666667 0 0 1 426.666667 96h170.666666A74.666667 74.666667 0 0 1 672 170.666667v96H853.333333a32 32 0 0 1 0 64h-13.226666l-40.106667 481.450666A117.333333 117.333333 0 0 1 682.666667 928H341.333333a117.333333 117.333333 0 0 1-117.333333-115.882667L183.893333 330.666667H170.666667a32 32 0 0 1 0-64h181.333333zM640 330.666667H248.106667l39.765333 477.354666c0.085333 0.853333 0.128 1.749333 0.128 2.645334A53.333333 53.333333 0 0 0 341.333333 864h341.333334A53.333333 53.333333 0 0 0 736 810.666667c0-0.853333 0-1.792 0.128-2.645334l39.765333-477.354666H640z m-213.333333 106.666666a32 32 0 0 1 32 32v256a32 32 0 0 1-64 0v-256a32 32 0 0 1 32-32z m202.666666 32a32 32 0 0 0-64 0v256a32 32 0 0 0 64 0v-256z" p-id="18135"></path></svg>